<?xml version="1.0" encoding="UTF-8" standalone="no"?>
<!-- Created with PhotoLine 23.02 (www.pl32.com) -->
<!DOCTYPE svg PUBLIC "-//W3C//DTD SVG 1.1//EN" "http://www.w3.org/Graphics/SVG/1.1/DTD/svg11.dtd">
<svg width="26" height="30" viewBox="0 0 26 30" version="1.1" xmlns="http://www.w3.org/2000/svg" xmlns:xlink="http://www.w3.org/1999/xlink">
  <g id="Path_15" transform="matrix(1.017214 0 0 0.991932 -252.90187 -210.280715)">
    <path fill="#700f1a" d="M273.11 239.2 C273.13 239.71 273.01 240.15 272.73 240.57 C272.45 240.97 272.02 241.18 271.53 241.16 L251.27 241.16 C250.78 241.18 250.35 240.97 250.07 240.57 C249.79 240.15 249.66 239.71 249.69 239.2 L249.69 239.15 C249.69 239.14 249.69 239.12 249.69 239.1 L252.22 222 L252.22 221.97 L252.23 221.9 L252.23 221.88 C252.23 220.85 253.02 219.99 254.05 219.92 L256.48 219.92 L256.48 223.49 C256.47 223.79 256.71 224.03 257.01 224.03 C257.3 224.03 257.54 223.79 257.55 223.5 C257.55 223.49 257.55 223.49 257.55 223.49 L257.55 219.92 L265.25 219.92 L265.25 223.49 C265.24 223.79 265.48 224.03 265.78 224.03 C266.07 224.03 266.31 223.79 266.32 223.5 C266.32 223.49 266.32 223.49 266.32 223.49 L266.32 219.92 L268.74 219.92 C269.77 219.99 270.56 220.85 270.56 221.88 L270.56 221.9 L270.57 221.97 L270.57 222 L273.09 239.06 L273.1 239.11 C273.1 239.13 273.1 239.14 273.1 239.16 Z M261.4 213.06 C263.52 213.06 265.25 214.79 265.25 216.91 L265.25 218.85 L257.55 218.85 L257.55 216.91 C257.55 214.79 259.28 213.06 261.4 213.06 Z M274.16 238.95 L273.21 232.47 L271.64 221.85 L271.64 221.8 C271.6 220.2 270.35 218.92 268.75 218.85 L266.32 218.85 L266.32 216.91 C266.33 214.2 264.12 211.99 261.41 211.99 C258.69 211.98 256.49 214.19 256.48 216.9 C256.48 216.91 256.48 216.91 256.48 216.91 L256.48 218.85 L254.06 218.85 C252.46 218.92 251.2 220.21 251.17 221.8 L251.17 221.85 L248.65 238.95 C248.64 239.02 248.63 239.08 248.63 239.15 L248.63 239.2 C248.61 239.94 248.79 240.59 249.22 241.2 C249.71 241.88 250.44 242.24 251.28 242.23 L271.54 242.23 C272.39 242.24 273.11 241.88 273.6 241.2 C274.03 240.59 274.22 239.94 274.19 239.2 L274.19 239.15 C274.19 239.08 274.19 239.02 274.18 238.95"/>
  </g>
</svg>
