<?xml version="1.0" encoding="UTF-8" standalone="no"?>
<!-- Created with PhotoLine 23.02 (www.pl32.com) -->
<!DOCTYPE svg PUBLIC "-//W3C//DTD SVG 1.1//EN" "http://www.w3.org/Graphics/SVG/1.1/DTD/svg11.dtd">
<svg width="26" height="29" viewBox="0 0 26 29" version="1.1" xmlns="http://www.w3.org/2000/svg" xmlns:xlink="http://www.w3.org/1999/xlink">
  <g id="Component_37_1" transform="matrix(0.99472 0 0 0.990437 0.49736 0.495219)">
    <g id="Icon_feather-user" transform="matrix(1 0 0 1 -6 -4.5)">
      <g id="Path_167" transform="matrix(1 0 0 1 0 0.854)">
        <path stroke-linecap="round" stroke-linejoin="round" fill="none" stroke="#700f1a" d="M31.14 31.93 L31.14 28.78 C31.14 25.32 28.32 22.5 24.85 22.5 L12.28 22.5 C8.82 22.5 6 25.32 6 28.78 L6 31.93"/>
      </g>
      <g id="Path_168" transform="matrix(1 0 0 1 0.285 0)">
        <path stroke-linecap="round" stroke-linejoin="round" fill="none" stroke="#700f1a" d="M24.57 10.78 C24.57 14.25 21.75 17.07 18.28 17.07 C14.82 17.07 12 14.25 12 10.78 C12 7.32 14.82 4.5 18.28 4.5 C18.28 4.5 18.28 4.5 18.28 4.5 C21.75 4.5 24.57 7.32 24.57 10.78 Z"/>
      </g>
    </g>
  </g>
</svg>
